<svg width="128" height="128" viewBox="0 0 128 128" fill="none" xmlns="http://www.w3.org/2000/svg">
  <!-- Badge Background -->
  <circle cx="64" cy="64" r="60" fill="#085492" stroke="#71E6DE" stroke-width="4"/>
  
  <!-- Inner circle -->
  <circle cx="64" cy="64" r="45" fill="#71E6DE" opacity="0.2"/>
  
  <!-- Star/Level Icon -->
  <path d="M64 20L70 40L90 40L75 55L80 75L64 65L48 75L53 55L38 40L58 40Z" fill="#FFD700"/>
  
  <!-- Star details -->
  <path d="M64 30L67 45L82 45L70 55L73 70L64 60L55 70L58 55L46 45L61 45Z" fill="#FFA500"/>
  
  <!-- Number 5 -->
  <text x="64" y="100" text-anchor="middle" font-family="Arial, sans-serif" font-size="24" font-weight="bold" fill="#085492">5</text>
  
  <!-- Decorative sparkles -->
  <circle cx="30" cy="30" r="3" fill="#FFD700" opacity="0.8"/>
  <circle cx="95" cy="35" r="2" fill="#FFD700" opacity="0.8"/>
  <circle cx="25" cy="90" r="2" fill="#FFD700" opacity="0.8"/>
  <circle cx="100" cy="85" r="3" fill="#FFD700" opacity="0.8"/>
</svg>
